<svg width="20" height="21" viewBox="0 0 20 21" fill="none" xmlns="http://www.w3.org/2000/svg">
  <path d="M14.0771 0.0788109C14.4648 0.000748381 14.8619 -0.0194703 15.2555 0.0188109C15.3321 0.0250297 15.6288 0.0405299 15.6776 0.0684049C16.8229 0.0698424 18.0052 0.41003 18.7741 1.26665C19.0446 1.56794 19.1922 1.64987 19.3667 2.03306L19.5194 2.29544C19.5852 2.45953 19.6434 2.60428 19.697 2.77356C19.8551 3.5304 20.1373 6.07497 19.8471 6.73487C19.8098 7.0574 19.5722 8.10453 19.4143 8.364C19.279 8.79165 18.3732 10.6787 18.1094 10.9245C17.6014 11.7948 16.7791 12.7205 16.19 13.5617C15.9939 13.8418 15.6589 14.1378 15.436 14.4137L15.1727 14.7903C14.8113 15.4403 13.6721 16.6903 13.1604 17.2714C12.8446 17.691 12.4505 18.0619 12.0835 18.44C11.7603 18.773 11.4488 19.1206 11.1107 19.436C10.6569 19.8499 9.83282 20.6407 9.26651 20.7737C9.17388 20.7452 9.01544 20.7012 8.93147 20.666C8.00713 20.186 4.3396 15.4659 3.53091 14.3585C3.06919 13.7261 2.62963 13.0616 2.21572 12.3972C1.6116 11.4275 1.02332 10.3479 0.659568 9.264C0.376475 8.57762 0.173069 7.64287 0.0602561 6.90265C-0.109213 5.79031 0.119944 4.65056 0.24285 3.54331C0.351131 2.56775 1.04354 1.80059 1.76722 1.20034C2.67679 0.445936 3.17179 0.438811 4.29947 0.307499C4.91229 0.20378 5.74816 0.144874 6.32563 0.426499C7.64938 0.796092 8.74994 1.98984 9.55094 3.05494C9.60307 3.12425 9.65163 3.19775 9.70994 3.26184C9.80216 3.13128 9.88135 3.03094 9.98172 2.90853C10.0643 2.68587 10.5264 2.23519 10.7073 2.048C11.5559 1.16944 12.8598 0.310092 14.0771 0.0788109Z" fill="#811300"/>
  <path d="M0.659568 9.264C0.69235 9.08459 0.581693 8.96119 0.604412 8.80622C0.875974 8.79897 1.15563 9.98416 1.31819 10.253C1.89866 11.2129 2.40694 12.2723 3.06754 13.1863C4.77426 15.5476 6.48919 17.916 8.56569 19.973C8.68769 20.0938 8.8131 20.2147 8.92885 20.3385C8.93451 20.4291 8.95129 20.5839 8.93147 20.666C8.00713 20.186 4.3396 15.4659 3.53091 14.3585C3.06919 13.7261 2.62963 13.0616 2.21572 12.3972C1.6116 11.4275 1.02332 10.3479 0.659568 9.264Z" fill="#B11301"/>
  <path d="M17.8391 10.8146C17.9152 10.8412 17.9228 10.8624 17.9755 10.9287L18.1094 10.9245C17.6014 11.7948 16.7791 12.7205 16.19 13.5617C15.9939 13.8418 15.6589 14.1378 15.436 14.4137C15.3685 14.0631 16.4541 12.7575 16.7004 12.4217C17.0653 11.9244 17.4692 11.3102 17.8391 10.8146Z" fill="#B11301"/>
  <path d="M15.6776 0.0684049C16.8229 0.0698424 18.0052 0.41003 18.7741 1.26665C19.0446 1.56794 19.1922 1.64987 19.3667 2.03306C19.3239 2.08215 19.2629 2.15712 19.2159 2.198C18.7464 1.58894 18.2496 0.907905 17.5009 0.674561C17.0924 0.547249 16.663 0.368749 16.2464 0.27453C16.0261 0.0899987 15.9544 0.145811 15.6776 0.0684049Z" fill="#B61306"/>
  <path d="M13.0151 17.0078C13.5712 16.432 14.1386 15.5642 14.7494 15.0304C14.8017 14.9847 15.0942 14.8318 15.1727 14.7903C14.8113 15.4403 13.6721 16.6903 13.1604 17.2714C13.1223 17.1719 13.0973 17.0721 13.0151 17.0078Z" fill="#AE1002"/>
  <path d="M19.1433 8.35966C19.202 8.38419 19.2356 8.41425 19.2824 8.45666L19.3237 8.46166L19.3561 8.36572L19.3964 8.35009L19.4143 8.364C19.279 8.79165 18.3732 10.6787 18.1094 10.9245L17.9755 10.9287C17.9228 10.8624 17.9152 10.8412 17.8391 10.8146C18.3375 10.1902 18.7818 9.08131 19.1433 8.35966Z" fill="#AE1002"/>
  <path d="M13.0151 17.0078C13.0973 17.0721 13.1223 17.1719 13.1604 17.2714C12.8446 17.691 12.4505 18.0619 12.0835 18.44C11.7603 18.773 11.4488 19.1206 11.1107 19.436C10.8479 19.3354 10.9393 19.2113 11.1348 19.0655C11.8785 18.5106 12.3436 17.6226 13.0151 17.0078Z" fill="#B11301"/>
  <path d="M4.29947 0.307499C4.91229 0.20378 5.74816 0.144874 6.32563 0.426499C6.28313 0.504905 6.27507 0.51875 6.21226 0.581688C5.91616 0.600438 4.64291 0.367749 4.29947 0.307499Z" fill="#B11301"/>
  <path d="M19.1433 8.35966C19.2742 7.96788 19.5967 7.03272 19.8471 6.73487C19.8098 7.0574 19.5722 8.10453 19.4143 8.364L19.3964 8.35009L19.3561 8.36572L19.3237 8.46166L19.2824 8.45666C19.2356 8.41425 19.202 8.38419 19.1433 8.35966Z" fill="#B11301"/>
  <path d="M14.0771 0.0788109C14.4648 0.000748381 14.8619 -0.0194703 15.2555 0.0188109C15.1176 0.143342 15.0709 0.181999 14.8886 0.231374C14.6449 0.233936 14.2313 0.320311 14.0731 0.195092L14.0771 0.0788109Z" fill="#B11301"/>
  <path d="M15.2555 0.0188109C15.3321 0.0250297 15.6288 0.0405299 15.6776 0.0684049C15.9544 0.145811 16.0261 0.0899987 16.2464 0.27453C15.9434 0.224061 15.2284 0.234842 14.8886 0.231374C15.0709 0.181999 15.1176 0.143342 15.2555 0.0188109Z" fill="#AE1002"/>
  <path d="M19.5194 2.29544C19.5852 2.45953 19.6434 2.60428 19.697 2.77356L19.6096 2.85269L19.5495 2.84094C19.4481 2.76325 19.3954 2.58056 19.3462 2.45503C19.4014 2.41516 19.4689 2.34465 19.5194 2.29544Z" fill="#AE1002"/>
  <path d="M9.70994 3.26184C9.80216 3.13128 9.88135 3.03094 9.98172 2.90853C9.9926 2.944 10.0028 2.97968 10.0121 3.01559C10.0405 3.1235 9.98744 3.23506 9.93251 3.32475C9.83782 3.38668 9.87882 3.37822 9.77813 3.36668L9.70994 3.26184Z" fill="#AE1002"/>
  <path d="M19.3667 2.03306L19.5194 2.29544C19.4689 2.34465 19.4014 2.41516 19.3462 2.45503C19.315 2.36509 19.2629 2.28119 19.2159 2.198C19.2629 2.15712 19.3239 2.08215 19.3667 2.03306Z" fill="#B11301"/>
  <path d="M14.7725 0.765812C15.4435 0.769687 16.188 0.831999 16.8357 0.995187C16.6327 1.24547 16.648 1.21991 16.3329 1.21628C16.283 1.313 16.3146 1.33822 16.3425 1.47394C16.3044 1.54503 16.3087 1.51537 16.3123 1.59234L16.4915 1.61475C16.3551 1.68962 16.199 1.54325 16.0832 1.51112C16.0144 1.48941 15.9136 1.64272 15.8553 1.63947C15.408 1.61469 14.8268 1.22825 14.7725 0.765812Z" fill="#B11301"/>
  <path d="M4.04529 13.5132C3.86872 13.2677 2.81179 11.7381 2.75529 11.5522C2.87672 11.584 3.59569 12.9775 3.8726 13.0037C3.82301 12.8617 2.99229 11.6855 2.84094 11.4911C3.37869 11.9857 3.57991 12.5581 4.07422 13.0613L4.09507 13.0823C4.12204 13.2788 4.18513 13.342 4.04529 13.5132Z" fill="#D72205"/>
  <path d="M4.09507 13.0823C4.12685 13.1123 4.19144 13.1614 4.19366 13.1939C4.20601 13.3755 4.68041 13.8182 4.70188 13.9415C4.57101 14.0373 4.58994 14.0638 4.55807 14.2453C4.39079 14.0678 4.18376 13.7283 4.04529 13.5132C4.18513 13.342 4.12204 13.2788 4.09507 13.0823Z" fill="#AE1002"/>
  <path d="M5.02107 14.3929L5.02841 14.4167C5.14591 14.789 6.09963 15.8111 6.07107 16.007C5.91822 15.8915 5.35826 14.8468 5.16276 14.8437L5.09951 14.8773L5.12229 14.8958C5.19785 14.9578 5.80519 15.8163 5.92676 15.9763C5.79838 15.8761 4.79822 14.6149 4.73104 14.4599C4.86622 14.4706 4.92757 14.4944 5.02107 14.3929Z" fill="#B11301"/>
  <path d="M9.43126 19.3392C9.63951 19.3741 9.83588 19.327 9.93223 19.3822L9.93807 19.4309C9.85838 19.5965 9.58163 19.9056 9.38644 19.916C9.22726 19.7943 9.16951 19.7212 9.04154 19.571L9.05404 19.5468C9.14244 19.5842 9.13744 19.6174 9.19523 19.717C9.28191 19.7493 9.24479 19.745 9.36144 19.6955C9.44201 19.5853 9.41969 19.4958 9.43126 19.3392Z" fill="#B11301"/>
  <path d="M4.55807 14.2453C4.58994 14.0638 4.57101 14.0373 4.70188 13.9415C4.80551 14.076 4.94619 14.2452 5.02107 14.3929C4.92757 14.4944 4.86622 14.4706 4.73104 14.4599C4.6956 14.4057 4.60257 14.2989 4.55807 14.2453Z" fill="#D72205"/>
</svg>
